<?xml version="1.0" encoding="UTF-8" standalone="no"?>
<svg
   xmlns:dc="http://purl.org/dc/elements/1.1/"
   xmlns:cc="http://creativecommons.org/ns#"
   xmlns:rdf="http://www.w3.org/1999/02/22-rdf-syntax-ns#"
   xmlns:svg="http://www.w3.org/2000/svg"
   xmlns="http://www.w3.org/2000/svg"
   xmlns:sodipodi="http://sodipodi.sourceforge.net/DTD/sodipodi-0.dtd"
   xmlns:inkscape="http://www.inkscape.org/namespaces/inkscape"
   fill="#FFFFFF"
   height="24"
   viewBox="0 0 24 24"
   width="24"
   id="svg2"
   version="1.1"
   inkscape:version="0.91 r13725"
   sodipodi:docname="app-toolbar.svg">
  <metadata
     id="metadata12">
    <rdf:RDF>
      <cc:Work
         rdf:about="">
        <dc:format>image/svg+xml</dc:format>
        <dc:type
           rdf:resource="http://purl.org/dc/dcmitype/StillImage" />
        <dc:title></dc:title>
      </cc:Work>
    </rdf:RDF>
  </metadata>
  <defs
     id="defs10" />
  <sodipodi:namedview
     pagecolor="#e0e0e0"
     bordercolor="#666666"
     borderopacity="1"
     objecttolerance="10"
     gridtolerance="10"
     guidetolerance="10"
     inkscape:pageopacity="1"
     inkscape:pageshadow="2"
     inkscape:window-width="1366"
     inkscape:window-height="705"
     id="namedview8"
     showgrid="false"
     inkscape:zoom="1"
     inkscape:cx="737.02498"
     inkscape:cy="84.145707"
     inkscape:window-x="-8"
     inkscape:window-y="-8"
     inkscape:window-maximized="1"
     inkscape:current-layer="svg2"
     showborder="false"
     showguides="true"
     inkscape:guide-bbox="true"
     inkscape:snap-bbox="true"
     inkscape:bbox-nodes="true"
     inkscape:snap-bbox-edge-midpoints="true"
     inkscape:bbox-paths="true"
     inkscape:snap-bbox-midpoints="true">
    <sodipodi:guide
       position="0,0"
       orientation="0,1"
       id="guide3334"
       inkscape:label=""
       inkscape:color="rgb(0,0,255)" />
    <sodipodi:guide
       position="0,0"
       orientation="1,0"
       id="guide3338"
       inkscape:label=""
       inkscape:color="rgb(0,0,255)" />
    <sodipodi:guide
       position="1300,0"
       orientation="1,0"
       id="guide3340"
       inkscape:label=""
       inkscape:color="rgb(0,0,255)" />
    <sodipodi:guide
       position="1290,0"
       orientation="1,0"
       id="guide4174"
       inkscape:label=""
       inkscape:color="rgb(0,0,255)" />
  </sodipodi:namedview>
  <path
     d="M0 0h24v24H0z"
     fill="none"
     id="path4" />
  <rect
     style="opacity:1;fill:#bdbaba;fill-opacity:1;stroke:none;stroke-width:1;stroke-miterlimit:4;stroke-dasharray:none;stroke-opacity:1"
     id="rect3342"
     width="1300"
     height="40"
     x="0"
     y="24" />
  <rect
     style="opacity:1;fill:#b3b3b3;fill-opacity:1;stroke:none;stroke-width:1;stroke-miterlimit:4;stroke-dasharray:none;stroke-opacity:1"
     id="rect4144"
     width="41.877644"
     height="40"
     x="-1159.3199"
     y="24"
     transform="scale(-1,1)" />
  <path
     d="m 1187.691,44.98 c 0.04,-0.32 0.07,-0.64 0.07,-0.98 0,-0.34 -0.03,-0.66 -0.07,-0.98 l 2.11,-1.65 c 0.19,-0.15 0.24,-0.42 0.12,-0.64 l -2,-3.46 c -0.12,-0.22 -0.39,-0.3 -0.61,-0.22 l -2.49,1 c -0.52,-0.4 -1.08,-0.73 -1.69,-0.98 l -0.38,-2.65 c -0.03,-0.24 -0.24,-0.42 -0.49,-0.42 l -4,0 c -0.25,0 -0.46,0.18 -0.49,0.42 l -0.38,2.65 c -0.61,0.25 -1.17,0.59 -1.69,0.98 l -2.49,-1 c -0.23,-0.09 -0.49,0 -0.61,0.22 l -2,3.46 c -0.13,0.22 -0.07,0.49 0.12,0.64 l 2.11,1.65 c -0.04,0.32 -0.07,0.65 -0.07,0.98 0,0.33 0.03,0.66 0.07,0.98 l -2.11,1.65 c -0.19,0.15 -0.24,0.42 -0.12,0.64 l 2,3.46 c 0.12,0.22 0.39,0.3 0.61,0.22 l 2.49,-1 c 0.52,0.4 1.08,0.73 1.69,0.98 l 0.38,2.65 c 0.03,0.24 0.24,0.42 0.49,0.42 l 4,0 c 0.25,0 0.46,-0.18 0.49,-0.42 l 0.38,-2.65 c 0.61,-0.25 1.17,-0.59 1.69,-0.98 l 2.49,1 c 0.23,0.09 0.49,0 0.61,-0.22 l 2,-3.46 c 0.12,-0.22 0.07,-0.49 -0.12,-0.64 l -2.11,-1.65 z m -7.43,2.52 c -1.93,0 -3.5,-1.57 -3.5,-3.5 0,-1.93 1.57,-3.5 3.5,-3.5 1.93,0 3.5,1.57 3.5,3.5 0,1.93 -1.57,3.5 -3.5,3.5 z"
     id="path6"
     inkscape:connector-curvature="0" />
  <path
     inkscape:connector-curvature="0"
     style="fill:none"
     d="m 1126.3811,32 24,0 0,24 -24,0 z"
     id="path4-4" />
  <path
     inkscape:connector-curvature="0"
     d="m 1129.3811,49 0,2 6,0 0,-2 -6,0 z m 0,-12 0,2 10,0 0,-2 -10,0 z m 10,16 0,-2 8,0 0,-2 -8,0 0,-2 -2,0 0,6 2,0 z m -6,-12 0,2 -4,0 0,2 4,0 0,2 2,0 0,-6 -2,0 z m 14,4 0,-2 -10,0 0,2 10,0 z m -6,-4 2,0 0,-2 4,0 0,-2 -4,0 0,-2 -2,0 0,6 z"
     id="path6-6" />
  <text
     xml:space="preserve"
     style="font-style:normal;font-weight:normal;font-size:12.5px;line-height:125%;font-family:sans-serif;letter-spacing:0px;word-spacing:0px;fill:#ffffff;fill-opacity:1;stroke:none;stroke-width:1px;stroke-linecap:butt;stroke-linejoin:miter;stroke-opacity:1"
     x="1254.5203"
     y="46.321453"
     id="text4158"
     sodipodi:linespacing="125%"><tspan
       sodipodi:role="line"
       id="tspan4160"
       x="1254.5203"
       y="46.321453">about</tspan></text>
  <path
     inkscape:connector-curvature="0"
     style="fill:none"
     d="m 953,26 36,0 0,36 -36,0 z"
     id="path4-5" />
  <text
     sodipodi:linespacing="125%"
     id="text4170"
     y="6.3214531"
     x="1254.5203"
     style="font-style:normal;font-weight:normal;font-size:12.5px;line-height:125%;font-family:sans-serif;letter-spacing:0px;word-spacing:0px;fill:#808080;fill-opacity:1;stroke:none;stroke-width:1px;stroke-linecap:butt;stroke-linejoin:miter;stroke-opacity:1"
     xml:space="preserve"><tspan
       y="6.3214531"
       x="1254.5203"
       id="tspan4172"
       sodipodi:role="line">about</tspan></text>
</svg>
